<svg width="53" height="57" viewBox="0 0 53 57" fill="none" xmlns="http://www.w3.org/2000/svg">
<path d="M26.4172 56.9148C26.1905 56.9148 25.9185 56.8695 25.6918 56.7788L18.7999 53.8316C12.9962 51.3378 8.68873 46.4409 6.92041 40.3652L0.0738597 16.6063C-0.198189 15.6541 0.300567 14.7019 1.25274 14.3846L2.70366 13.9311C11.0465 11.2107 18.7999 6.5405 25.193 0.510091C25.8731 -0.17003 27.0067 -0.17003 27.6868 0.510091L27.9588 0.736798C34.3066 6.72186 42.06 11.3013 50.4028 13.9765L51.5364 14.3392C52.4885 14.6566 52.9873 15.6088 52.7152 16.5609L45.8233 40.3198C44.2364 45.8062 40.4277 50.431 35.3948 53.1061C34.488 53.5595 33.3998 53.2421 32.9464 52.3353C32.493 51.4285 32.8104 50.3403 33.7172 49.8869C37.8886 47.7105 41.0625 43.8565 42.332 39.3223L48.7252 17.2411C40.5184 14.5206 32.8104 10.0318 26.3719 4.22809C19.9334 10.0318 12.2707 14.5206 4.01856 17.2864L10.4117 39.3677C11.8626 44.3552 15.4446 48.436 20.2508 50.4763L27.1427 53.4235C28.0495 53.8316 28.5029 54.8744 28.0948 55.8266C27.7775 56.5067 27.0973 56.9148 26.4172 56.9148Z" fill="white"/>
<path d="M26.4172 49.4333C26.1905 49.4333 25.9184 49.3879 25.6917 49.2972L20.7495 47.1662C16.4421 45.3072 13.2229 41.6799 11.908 37.1911L6.96574 20.052C6.69369 19.0999 7.19245 18.1477 8.14462 17.8303L9.18747 17.4676C15.1272 15.5179 20.6135 12.208 25.1476 7.94588C25.8278 7.26576 26.9613 7.26576 27.6414 7.94588L27.8228 8.12725C32.3569 12.3893 37.8886 15.6539 43.783 17.5583L44.5991 17.8303C45.5513 18.1477 46.05 19.0999 45.778 20.052L40.8811 37.1457C39.5662 41.6345 36.347 45.3072 32.0395 47.1208L27.0973 49.2519C26.8706 49.3426 26.6439 49.4333 26.4172 49.4333ZM15.3992 36.1482C16.3968 39.5942 18.8452 42.4053 22.1551 43.8109L26.3719 45.6246L30.5886 43.8109C33.8985 42.4053 36.347 39.5942 37.3445 36.1482L41.7879 20.7322C36.2109 18.7825 30.906 15.6993 26.4172 11.7546C21.9284 15.6993 16.6235 18.8278 10.9558 20.7775L15.3992 36.1482Z" fill="white"/>
<path d="M16.6688 43.8564C16.3061 43.8564 15.898 43.7204 15.5806 43.4937C14.7645 42.9043 14.6285 41.7707 15.2179 40.9546L34.7147 15.246C35.3041 14.4299 36.4377 14.2938 37.2538 14.8833C38.07 15.4727 38.206 16.6063 37.6166 17.4224L18.1197 43.131C17.757 43.5844 17.2129 43.8564 16.6688 43.8564Z" fill="white"/>
</svg>
