<svg width="37" height="52" viewBox="0 0 37 52" fill="none" xmlns="http://www.w3.org/2000/svg">
<path d="M32.3869 46.4073H30.5797C29.5334 46.4073 28.6774 45.5512 28.6774 44.505C28.6774 43.4587 29.5334 42.6027 30.5797 42.6027H32.3869C32.91 42.6027 33.1954 42.3173 33.1954 42.2222V21.915C33.1954 20.9163 32.0064 20.0602 30.5797 20.0602H6.42031C4.99357 20.0602 3.80463 20.9163 3.80463 21.915V42.2698C3.80463 42.3173 4.08997 42.6502 4.61311 42.6502H20.7352C21.7815 42.6502 22.6375 43.5063 22.6375 44.5525C22.6375 45.5988 21.7815 46.4548 20.7352 46.4548H4.61311C2.09254 46.4548 0 44.6001 0 42.2698V21.915C0 18.7762 2.85347 16.2556 6.42031 16.2556H30.5797C34.099 16.2556 37 18.8237 37 21.915V42.2698C37 44.5525 34.955 46.4073 32.3869 46.4073Z" fill="white"/>
<path d="M35.0977 51.3058H1.90231C0.856041 51.3058 0 50.4498 0 49.4035C0 48.3573 0.856041 47.5012 1.90231 47.5012H35.0977C36.144 47.5012 37 48.3573 37 49.4035C37 50.4498 36.144 51.3058 35.0977 51.3058Z" fill="white"/>
<path d="M21.2108 30.0475C21.2108 28.5732 20.0218 27.3367 18.5 27.3367C17.0257 27.3367 15.7892 28.5256 15.7892 30.0475C15.7892 31.1889 16.5026 32.1876 17.5488 32.568V36.4202H19.4511V32.568C20.4499 32.1876 21.2108 31.1889 21.2108 30.0475Z" fill="white"/>
<path d="M7.18121 20.0128C6.13494 20.0128 5.2789 20.1568 5.2789 19.1105V13.2211C5.2789 5.94473 11.2236 0 18.5 0C25.7763 0 31.7211 5.94473 31.7211 13.2211V18.5C31.7211 19.5463 30.865 19.4023 29.8187 19.4023C28.7725 19.4023 27.9164 19.5463 27.9164 18.5V13.2211C27.9164 8.03727 23.6838 3.80463 18.5 3.80463C13.3162 3.80463 9.08353 8.03727 9.08353 13.2211V19.1105C9.08353 20.1568 8.22749 20.0128 7.18121 20.0128Z" fill="white"/>
</svg>
