<svg width="53" height="44" viewBox="0 0 53 44" fill="none" xmlns="http://www.w3.org/2000/svg">
<path d="M52.599 8.98843V4.13753C52.599 1.85476 50.7442 0 48.4614 0H36.9049C34.8123 0 32.7198 1.47429 32.0064 3.42416L30.5797 7.37146H6.61054C2.94859 7.32391 0 10.3201 0 13.9344V37.1902C0 40.8522 2.94859 43.8008 6.61054 43.8008H45.9884C49.6504 43.8008 52.599 40.8522 52.599 37.1902V8.98843ZM35.1452 4.56555C35.383 3.9473 36.2391 3.32905 36.9049 3.32905H48.4139C48.8419 3.32905 49.2224 3.70951 49.2224 4.13753V7.32391H34.1465L35.1452 4.56555ZM45.9884 40.5193H6.61054C4.80334 40.5193 3.32905 39.045 3.32905 37.2378V13.9344C3.32905 12.1272 4.80334 10.653 6.61054 10.653H31.7211H49.2224V37.1902C49.2699 39.045 47.7956 40.5193 45.9884 40.5193Z" fill="white"/>
<path d="M31.7686 24.6824L28.7725 23.874L27.964 20.8778L32.2442 16.5976C30.1516 15.8842 27.7738 16.4074 26.1092 18.0719C24.302 19.8791 23.874 22.4948 24.8252 24.6824L17.9768 31.4832C17.1208 32.3393 17.1208 33.766 17.9768 34.6696C18.8329 35.5256 20.2596 35.5256 21.1632 34.6696L28.0115 27.8213C30.1992 28.7724 32.8624 28.3444 34.6221 26.5372C36.2866 24.8727 36.7622 22.4948 36.0964 20.4022L31.7686 24.6824Z" fill="white"/>
</svg>
